<?xml version="1.0" encoding="utf-8"?>
<!-- Generator: Adobe Illustrator 16.0.0, SVG Export Plug-In . SVG Version: 6.00 Build 0)  -->
<!DOCTYPE svg PUBLIC "-//W3C//DTD SVG 1.1//EN" "http://www.w3.org/Graphics/SVG/1.1/DTD/svg11.dtd">
<svg version="1.1" id="图层_1" xmlns="http://www.w3.org/2000/svg" xmlns:xlink="http://www.w3.org/1999/xlink" x="0px" y="0px"
	 width="560px" height="560px" viewBox="0 0 560 560" enable-background="new 0 0 560 560" xml:space="preserve">
<rect fill-rule="evenodd" clip-rule="evenodd" fill="#EA2A2A" width="560" height="560"/>
<g>
	<path fill-rule="evenodd" clip-rule="evenodd" fill="#F9F9F9" d="M270.613,73.181c26.378-0.204,49.868,5.378,69.889,17.831
		c15.726,9.781,29.528,23.377,42.688,37.207c13.897,14.604,20.805,31.784,24.04,50.768c6.56,38.479,1.732,75.232-18.279,109.426
		c-10.582,18.08-25.776,30.939-43.849,40.903c-5.151,2.84-10.024,5.738-16.14,6.455c-8.427,0.987-14.754,7.457-23.123,9.418
		c-12.121,2.841-23.768,8.01-36.355,1.71c-2.266-1.133-5.549-0.105-8.344-0.321c-28.544-2.22-51.667-16.121-73.336-33.604
		c-18.847-15.206-32.996-34.038-39.891-56.914c-13.536-44.906-8.562-88.458,18.784-126.958
		c21.884-30.81,52.042-50.642,90.948-54.356C262.691,74.264,267.714,73.535,270.613,73.181z M297.554,310.686
		c53.305-10.936,82.552-51.692,80.951-109.419c-1.283-46.249-49.144-88.693-80.928-88.708c0,3.596-0.03,7.204,0.004,10.809
		c0.218,22.68,0.678,45.361,0.608,68.039c-0.061,19.306-3.105,38.393-1.091,57.969C299.154,269.363,297.554,289.729,297.554,310.686
		z M256.915,110.985c-6.998,1.188-12.979,1.587-18.577,3.263c-24.604,7.364-41.752,25.082-53.48,46.125
		c-10.998,19.736-14.203,42.657-8.923,65.68c0.488,2.128,2.178,5.172,1.343,6.221c-6,7.54,1.316,12.626,2.132,19.287
		c8.219-3.88,13.836-10.015,20.582-13.996c15.797-9.319,29.748-21.329,45.689-30.286c10.011-5.625,14.357-13.37,11.866-24.785
		c-0.531-2.429-0.801-5.042-0.533-7.497C259.312,153.929,256.855,132.91,256.915,110.985z M201.066,282.569
		c18.378,14.849,36.504,27.73,60.262,30.232c-0.375-22.741,0.333-44.869-3.738-67.382
		C237.478,255.915,220.038,269.26,201.066,282.569z"/>
	<path fill-rule="evenodd" clip-rule="evenodd" fill="#E82D2D" d="M297.554,310.686c0-20.956,1.601-41.322-0.455-61.311
		c-2.015-19.576,1.03-38.663,1.091-57.969c0.069-22.678-0.391-45.359-0.608-68.039c-0.034-3.605-0.004-7.213-0.004-10.809
		c31.784,0.015,79.645,42.459,80.928,88.708C380.105,258.994,350.858,299.75,297.554,310.686z"/>
	<path fill-rule="evenodd" clip-rule="evenodd" fill="#EF3737" d="M256.915,110.985c-0.06,21.924,2.397,42.943,0.1,64.011
		c-0.268,2.456,0.002,5.068,0.533,7.497c2.491,11.416-1.855,19.16-11.866,24.785c-15.941,8.957-29.892,20.967-45.689,30.286
		c-6.746,3.981-12.363,10.116-20.582,13.996c-0.816-6.661-8.133-11.747-2.132-19.287c0.835-1.049-0.855-4.093-1.343-6.221
		c-5.28-23.022-2.075-45.944,8.923-65.68c11.728-21.043,28.876-38.762,53.48-46.125
		C243.937,112.572,249.917,112.174,256.915,110.985z"/>
	<path fill-rule="evenodd" clip-rule="evenodd" fill="#EF3535" d="M201.066,282.569c18.972-13.31,36.411-26.655,56.523-37.15
		c4.071,22.513,3.363,44.641,3.738,67.382C237.571,310.3,219.444,297.418,201.066,282.569z"/>
</g>
<text transform="matrix(1 0 0 1 288 442)" stroke="#F9F7F7" stroke-width="3" stroke-miterlimit="10" font-family="'MVBoli'" font-size="60">G.Dragon</text>
<text transform="matrix(1 0 0 1 40 444)" stroke="#F9F7F7" stroke-width="3" stroke-miterlimit="10" font-family="'MVBoli'" font-size="60">Pandora</text>
</svg>
